<svg width="20" height="20" viewBox="0 0 20 20" fill="none" xmlns="http://www.w3.org/2000/svg">
<g clip-path="url(#clip0_56_2784)">
<path d="M15.5245 4.47573C15.7003 4.65154 15.7991 4.89 15.7991 5.13864C15.7991 5.38728 15.7003 5.62574 15.5245 5.80155L11.326 10L15.5245 14.1984C15.7003 14.3743 15.7991 14.6127 15.7991 14.8614C15.7991 15.11 15.7003 15.3485 15.5245 15.5243C15.3487 15.7001 15.1102 15.7989 14.8616 15.7989C14.6129 15.7989 14.3745 15.7001 14.1986 15.5243L10.0002 11.3258L5.80176 15.5243C5.62594 15.7001 5.38748 15.7989 5.13884 15.7989C4.8902 15.7989 4.65175 15.7001 4.47593 15.5243C4.30012 15.3485 4.20134 15.11 4.20134 14.8614C4.20134 14.6127 4.30012 14.3743 4.47593 14.1984L8.67438 10L4.47593 5.80155C4.30012 5.62574 4.20134 5.38728 4.20134 5.13864C4.20134 4.89 4.30012 4.65154 4.47593 4.47573C4.65175 4.29991 4.8902 4.20114 5.13884 4.20114C5.38748 4.20114 5.62594 4.29991 5.80176 4.47573L10.0002 8.67417L14.1986 4.47573C14.3745 4.29991 14.6129 4.20114 14.8616 4.20114C15.1102 4.20114 15.3487 4.29991 15.5245 4.47573Z" fill="white"/>
</g>
<defs>
<clipPath id="clip0_56_2784">
<rect width="20" height="20" fill="white"/>
</clipPath>
</defs>
</svg>
