<svg width="12" height="12" viewBox="0 0 12 12" fill="none" xmlns="http://www.w3.org/2000/svg">
<path d="M10.0153 4.76534L6.26531 8.51534C6.23048 8.5502 6.18912 8.57786 6.1436 8.59674C6.09807 8.61561 6.04928 8.62532 5.99999 8.62532C5.95071 8.62532 5.90192 8.61561 5.85639 8.59674C5.81087 8.57786 5.76951 8.5502 5.73468 8.51534L1.98468 4.76534C1.91432 4.69497 1.87479 4.59954 1.87479 4.50003C1.87479 4.40051 1.91432 4.30508 1.98468 4.23471C2.05505 4.16435 2.15048 4.12482 2.24999 4.12482C2.34951 4.12482 2.44494 4.16435 2.51531 4.23471L5.99999 7.71987L9.48468 4.23471C9.51952 4.19987 9.56089 4.17223 9.60641 4.15338C9.65193 4.13452 9.70072 4.12482 9.75 4.12482C9.79927 4.12482 9.84806 4.13452 9.89358 4.15338C9.9391 4.17223 9.98047 4.19987 10.0153 4.23471C10.0501 4.26955 10.0778 4.31092 10.0966 4.35644C10.1155 4.40196 10.1252 4.45075 10.1252 4.50003C10.1252 4.5493 10.1155 4.59809 10.0966 4.64361C10.0778 4.68913 10.0501 4.7305 10.0153 4.76534Z" fill="white"/>
</svg>
