<svg width="24" height="24" viewBox="0 0 24 24" fill="none" xmlns="http://www.w3.org/2000/svg">
<path d="M20.2188 13.7982C19.7199 15.4273 18.72 16.8574 17.3614 17.8852C16.1686 18.7831 14.7492 19.3308 13.2625 19.4667C11.7758 19.6025 10.2807 19.3213 8.94497 18.6545C7.60922 17.9877 6.48571 16.9617 5.70056 15.6917C4.9154 14.4216 4.49968 12.9579 4.50004 11.4647C4.49467 9.72179 5.06114 8.02527 6.11253 6.63539C7.14007 5.27651 8.56991 4.27639 10.1986 3.77736C10.3059 3.7443 10.4203 3.74114 10.5293 3.76821C10.6383 3.79528 10.7379 3.85156 10.8173 3.93099C10.8967 4.01043 10.953 4.11002 10.98 4.21905C11.0071 4.32809 11.0039 4.44244 10.9709 4.5498C10.6147 5.7281 10.5849 6.98097 10.8845 8.17491C11.1841 9.36885 11.8019 10.4591 12.6721 11.3295C13.5424 12.2 14.6324 12.8179 15.8261 13.1176C17.0197 13.4173 18.2723 13.3874 19.4504 13.0312C19.5577 12.9981 19.672 12.995 19.781 13.022C19.8901 13.0491 19.9896 13.1054 20.069 13.1848C20.1485 13.2643 20.2047 13.3638 20.2318 13.4729C20.2589 13.5819 20.2557 13.6963 20.2226 13.8036L20.2188 13.7982Z" fill="#34476C"/>
</svg>
