<svg width="228" height="66" viewBox="0 0 228 66" fill="none" xmlns="http://www.w3.org/2000/svg">
<path d="M85.06 61L88.02 46.16H89.02L87.5 53.84L86.9 55.64L86.74 57.46L86.04 61H85.06ZM90.7 61.08C89.7933 61.08 89.0133 60.92 88.36 60.6C87.72 60.2667 87.2333 59.7933 86.9 59.18C86.5667 58.5533 86.3933 57.8 86.38 56.92C86.38 55.9867 86.5133 55.1267 86.78 54.34C87.0467 53.5533 87.4333 52.8733 87.94 52.3C88.4467 51.7267 89.0467 51.28 89.74 50.96C90.4467 50.64 91.2333 50.48 92.1 50.48C93.0067 50.48 93.7933 50.6533 94.46 51C95.14 51.3467 95.6667 51.8467 96.04 52.5C96.4267 53.1533 96.62 53.9267 96.62 54.82C96.62 55.7267 96.4733 56.56 96.18 57.32C95.8867 58.08 95.4733 58.74 94.94 59.3C94.42 59.86 93.8 60.3 93.08 60.62C92.36 60.9267 91.5667 61.08 90.7 61.08ZM90.72 60.18C91.6667 60.18 92.5067 59.9533 93.24 59.5C93.9733 59.0467 94.5467 58.42 94.96 57.62C95.3867 56.8067 95.6 55.8933 95.6 54.88C95.6 53.76 95.2733 52.9 94.62 52.3C93.98 51.6867 93.0733 51.38 91.9 51.38C90.9667 51.38 90.1267 51.6067 89.38 52.06C88.6467 52.5133 88.0667 53.14 87.64 53.94C87.2133 54.74 87 55.6533 87 56.68C87 57.7867 87.3267 58.6467 87.98 59.26C88.6333 59.8733 89.5467 60.18 90.72 60.18ZM97.4031 64.96C96.9365 64.96 96.4898 64.88 96.0631 64.72C95.6365 64.56 95.2965 64.3333 95.0431 64.04L95.6231 63.3C95.8498 63.5667 96.1231 63.76 96.4431 63.88C96.7498 64.0133 97.1031 64.08 97.5031 64.08C97.9698 64.08 98.3965 63.9533 98.7831 63.7C99.1831 63.4467 99.6098 62.9733 100.063 62.28L101.163 60.62L101.323 60.44L107.703 50.56H108.743L100.943 62.54C100.543 63.1533 100.156 63.6333 99.7831 63.98C99.4231 64.34 99.0498 64.5933 98.6631 64.74C98.2898 64.8867 97.8698 64.96 97.4031 64.96ZM101.023 61.26L98.3031 50.56H99.3231L101.783 60.38L101.023 61.26ZM120.946 50.48C121.893 50.48 122.66 50.6667 123.246 51.04C123.846 51.4 124.253 51.92 124.466 52.6C124.693 53.2667 124.713 54.0533 124.526 54.96L123.326 61H122.326L123.526 54.96C123.753 53.8533 123.626 52.98 123.146 52.34C122.68 51.7 121.86 51.38 120.686 51.38C119.5 51.38 118.506 51.7133 117.706 52.38C116.906 53.0333 116.373 54.0133 116.106 55.32L114.966 61H113.966L116.926 46.16H117.926L116.446 53.58L116.166 53.32C116.66 52.3333 117.32 51.6133 118.146 51.16C118.973 50.7067 119.906 50.48 120.946 50.48ZM127.643 61L130.043 48.98C130.23 48.0333 130.603 47.3133 131.163 46.82C131.737 46.3267 132.477 46.08 133.383 46.08C133.797 46.08 134.183 46.14 134.543 46.26C134.903 46.38 135.19 46.5533 135.403 46.78L134.923 47.5C134.537 47.1267 134.017 46.94 133.363 46.94C132.71 46.94 132.19 47.1133 131.803 47.46C131.417 47.8067 131.15 48.36 131.003 49.12L130.663 50.8L130.583 51.24L128.643 61H127.643ZM127.623 51.42L127.783 50.56H134.043L133.883 51.42H127.623ZM138.41 61.08C137.437 61.08 136.59 60.9067 135.87 60.56C135.15 60.2 134.597 59.6933 134.21 59.04C133.837 58.3867 133.65 57.6067 133.65 56.7C133.65 55.5133 133.897 54.4533 134.39 53.52C134.897 52.5867 135.577 51.8467 136.43 51.3C137.297 50.7533 138.27 50.48 139.35 50.48C140.27 50.48 141.057 50.6533 141.71 51C142.363 51.3467 142.87 51.8467 143.23 52.5C143.603 53.14 143.79 53.92 143.79 54.84C143.79 55.04 143.777 55.24 143.75 55.44C143.723 55.64 143.697 55.8267 143.67 56H134.41L134.55 55.22H143.19L142.79 55.56C142.937 54.64 142.877 53.8733 142.61 53.26C142.343 52.6333 141.923 52.16 141.35 51.84C140.79 51.5067 140.117 51.34 139.33 51.34C138.423 51.34 137.61 51.5733 136.89 52.04C136.183 52.4933 135.63 53.12 135.23 53.92C134.83 54.7067 134.63 55.62 134.63 56.66C134.63 57.7933 134.957 58.6667 135.61 59.28C136.263 59.88 137.223 60.18 138.49 60.18C139.237 60.18 139.917 60.06 140.53 59.82C141.157 59.5667 141.67 59.22 142.07 58.78L142.53 59.48C142.077 59.9733 141.483 60.3667 140.75 60.66C140.03 60.94 139.25 61.08 138.41 61.08ZM152.743 50.48C153.69 50.48 154.456 50.6667 155.043 51.04C155.643 51.4 156.05 51.92 156.263 52.6C156.49 53.2667 156.51 54.0533 156.323 54.96L155.123 61H154.123L155.323 54.96C155.55 53.8533 155.423 52.98 154.943 52.34C154.476 51.7 153.656 51.38 152.483 51.38C151.296 51.38 150.303 51.7133 149.503 52.38C148.703 53.0333 148.17 54.0133 147.903 55.32L146.763 61H145.763L147.843 50.56H148.823L148.223 53.58L147.963 53.32C148.456 52.3333 149.116 51.6133 149.943 51.16C150.77 50.7067 151.703 50.48 152.743 50.48ZM162.32 61.08C161.747 61.08 161.26 60.96 160.86 60.72C160.473 60.48 160.207 60.1333 160.06 59.68C159.913 59.2267 159.9 58.6867 160.02 58.06L161.98 48.28H162.98L161.04 57.98C160.893 58.7133 160.94 59.2733 161.18 59.66C161.433 60.0333 161.893 60.22 162.56 60.22C162.88 60.22 163.18 60.1733 163.46 60.08C163.753 59.9733 164.02 59.8267 164.26 59.64L164.56 60.38C164.24 60.6333 163.88 60.8133 163.48 60.92C163.093 61.0267 162.707 61.08 162.32 61.08ZM159.42 51.42L159.58 50.56H165.84L165.68 51.42H159.42ZM171.158 61.08C170.264 61.08 169.478 60.9067 168.798 60.56C168.118 60.2133 167.591 59.7133 167.218 59.06C166.844 58.4067 166.658 57.6333 166.658 56.74C166.658 55.8333 166.798 55 167.078 54.24C167.371 53.48 167.784 52.82 168.318 52.26C168.851 51.7 169.478 51.2667 170.198 50.96C170.918 50.64 171.704 50.48 172.558 50.48C173.478 50.48 174.258 50.6467 174.898 50.98C175.538 51.3 176.024 51.7733 176.358 52.4C176.704 53.0133 176.878 53.76 176.878 54.64C176.891 55.88 176.658 56.9867 176.178 57.96C175.711 58.9333 175.044 59.7 174.178 60.26C173.324 60.8067 172.318 61.08 171.158 61.08ZM171.358 60.18C172.304 60.18 173.144 59.9533 173.878 59.5C174.611 59.0467 175.191 58.42 175.618 57.62C176.044 56.8067 176.258 55.8933 176.258 54.88C176.258 53.76 175.931 52.9 175.278 52.3C174.638 51.6867 173.731 51.38 172.558 51.38C171.624 51.38 170.784 51.6133 170.038 52.08C169.304 52.5333 168.724 53.16 168.298 53.96C167.871 54.76 167.658 55.6667 167.658 56.68C167.658 57.7867 167.978 58.6467 168.618 59.26C169.271 59.8733 170.184 60.18 171.358 60.18ZM175.158 61L175.798 57.74L176.378 55.92L176.518 54L177.198 50.56H178.198L176.118 61H175.158ZM187.294 50.48C188.241 50.48 189.007 50.6667 189.594 51.04C190.194 51.4 190.601 51.92 190.814 52.6C191.041 53.2667 191.061 54.0533 190.874 54.96L189.674 61H188.674L189.874 54.96C190.101 53.8533 189.974 52.98 189.494 52.34C189.027 51.7 188.207 51.38 187.034 51.38C185.847 51.38 184.854 51.7133 184.054 52.38C183.254 53.0333 182.721 54.0133 182.454 55.32L181.314 61H180.314L182.394 50.56H183.374L182.774 53.58L182.514 53.32C183.007 52.3333 183.667 51.6133 184.494 51.16C185.321 50.7067 186.254 50.48 187.294 50.48ZM198.371 61.08C197.398 61.08 196.551 60.9067 195.831 60.56C195.111 60.2 194.558 59.6933 194.171 59.04C193.798 58.3867 193.611 57.6067 193.611 56.7C193.611 55.5133 193.858 54.4533 194.351 53.52C194.858 52.5867 195.538 51.8467 196.391 51.3C197.258 50.7533 198.231 50.48 199.311 50.48C200.231 50.48 201.018 50.6533 201.671 51C202.324 51.3467 202.831 51.8467 203.191 52.5C203.564 53.14 203.751 53.92 203.751 54.84C203.751 55.04 203.738 55.24 203.711 55.44C203.684 55.64 203.658 55.8267 203.631 56H194.371L194.511 55.22H203.151L202.751 55.56C202.898 54.64 202.838 53.8733 202.571 53.26C202.304 52.6333 201.884 52.16 201.311 51.84C200.751 51.5067 200.078 51.34 199.291 51.34C198.384 51.34 197.571 51.5733 196.851 52.04C196.144 52.4933 195.591 53.12 195.191 53.92C194.791 54.7067 194.591 55.62 194.591 56.66C194.591 57.7933 194.918 58.6667 195.571 59.28C196.224 59.88 197.184 60.18 198.451 60.18C199.198 60.18 199.878 60.06 200.491 59.82C201.118 59.5667 201.631 59.22 202.031 58.78L202.491 59.48C202.038 59.9733 201.444 60.3667 200.711 60.66C199.991 60.94 199.211 61.08 198.371 61.08ZM208.584 61.08C207.757 61.08 206.971 60.96 206.224 60.72C205.491 60.4667 204.924 60.1467 204.524 59.76L205.064 58.98C205.451 59.3533 205.964 59.6533 206.604 59.88C207.257 60.0933 207.944 60.2 208.664 60.2C209.744 60.2 210.577 60.0067 211.164 59.62C211.764 59.2333 212.064 58.7067 212.064 58.04C212.064 57.5867 211.917 57.2467 211.624 57.02C211.344 56.7933 210.971 56.62 210.504 56.5C210.051 56.38 209.564 56.2667 209.044 56.16C208.537 56.0533 208.051 55.92 207.584 55.76C207.131 55.6 206.757 55.3533 206.464 55.02C206.184 54.6867 206.044 54.2267 206.044 53.64C206.044 53 206.224 52.4467 206.584 51.98C206.944 51.5 207.451 51.1333 208.104 50.88C208.757 50.6133 209.524 50.48 210.404 50.48C211.057 50.48 211.697 50.5733 212.324 50.76C212.964 50.9333 213.471 51.18 213.844 51.5L213.384 52.28C212.984 51.9733 212.511 51.7467 211.964 51.6C211.431 51.44 210.884 51.36 210.324 51.36C209.297 51.36 208.491 51.56 207.904 51.96C207.317 52.36 207.024 52.8867 207.024 53.54C207.024 53.9933 207.171 54.34 207.464 54.58C207.757 54.82 208.131 55 208.584 55.12C209.037 55.24 209.524 55.3533 210.044 55.46C210.564 55.5533 211.051 55.6867 211.504 55.86C211.971 56.02 212.344 56.26 212.624 56.58C212.917 56.9 213.064 57.3533 213.064 57.94C213.064 58.5933 212.877 59.16 212.504 59.64C212.131 60.1067 211.611 60.4667 210.944 60.72C210.277 60.96 209.491 61.08 208.584 61.08Z" fill="#B5B5B5"/>
<path d="M1.224 24.172L16.272 15.136V17.08L3.816 24.676L16.272 32.272V34.252L1.224 25.252V24.172ZM39.4149 10.096H30.0549V34H28.2189V10.096H18.8589V8.44H39.4149V10.096ZM46.7288 34.36C45.4088 34.36 44.1848 34.108 43.0568 33.604C41.9288 33.076 40.9448 32.368 40.1048 31.48C39.2888 30.568 38.6408 29.524 38.1608 28.348C37.7048 27.148 37.4768 25.888 37.4768 24.568C37.4768 22.792 37.8728 21.184 38.6648 19.744C39.4568 18.304 40.5488 17.152 41.9408 16.288C43.3328 15.4 44.8928 14.956 46.6208 14.956C48.3968 14.956 49.9688 15.4 51.3368 16.288C52.7048 17.176 53.7848 18.352 54.5768 19.816C55.3928 21.256 55.8008 22.84 55.8008 24.568C55.8008 24.712 55.8008 24.856 55.8008 25C55.8008 25.144 55.7888 25.264 55.7648 25.36H39.3488C39.4448 26.776 39.8408 28.06 40.5368 29.212C41.2328 30.364 42.1208 31.276 43.2008 31.948C44.3048 32.596 45.5048 32.92 46.8008 32.92C48.0968 32.92 49.3208 32.584 50.4728 31.912C51.6248 31.24 52.4288 30.376 52.8848 29.32L54.4688 29.752C54.1088 30.64 53.5328 31.432 52.7408 32.128C51.9728 32.824 51.0608 33.376 50.0048 33.784C48.9728 34.168 47.8808 34.36 46.7288 34.36ZM39.2768 23.956H54.0728C53.9768 22.492 53.5928 21.196 52.9208 20.068C52.2488 18.94 51.3608 18.052 50.2568 17.404C49.1768 16.756 47.9768 16.432 46.6568 16.432C45.3368 16.432 44.1368 16.756 43.0568 17.404C41.9768 18.052 41.1008 18.94 40.4288 20.068C39.7568 21.196 39.3728 22.492 39.2768 23.956ZM67.7171 34.36C66.4211 34.36 65.2091 34.108 64.0811 33.604C62.9531 33.076 61.9691 32.368 61.1291 31.48C60.2891 30.568 59.6291 29.524 59.1491 28.348C58.6931 27.172 58.4651 25.912 58.4651 24.568C58.4651 22.768 58.8611 21.148 59.6531 19.708C60.4451 18.268 61.5371 17.116 62.9291 16.252C64.3211 15.388 65.9051 14.956 67.6811 14.956C69.3851 14.956 70.8851 15.352 72.1811 16.144C73.4771 16.912 74.4491 17.968 75.0971 19.312L73.3331 19.888C72.7811 18.856 71.9891 18.052 70.9571 17.476C69.9491 16.876 68.8331 16.576 67.6091 16.576C66.2411 16.576 65.0051 16.924 63.9011 17.62C62.7971 18.316 61.9091 19.276 61.2371 20.5C60.5891 21.7 60.2651 23.056 60.2651 24.568C60.2651 26.056 60.6011 27.424 61.2731 28.672C61.9451 29.92 62.8331 30.916 63.9371 31.66C65.0651 32.38 66.3011 32.74 67.6451 32.74C68.5091 32.74 69.3491 32.584 70.1651 32.272C71.0051 31.936 71.7251 31.504 72.3251 30.976C72.9491 30.448 73.3571 29.884 73.5491 29.284L75.3131 29.788C75.0011 30.676 74.4611 31.468 73.6931 32.164C72.9251 32.836 72.0251 33.376 70.9931 33.784C69.9851 34.168 68.8931 34.36 67.7171 34.36ZM94.6783 34H92.8783V23.56C92.8783 21.256 92.4823 19.528 91.6903 18.376C90.8983 17.2 89.7463 16.612 88.2343 16.612C87.2503 16.612 86.2663 16.864 85.2823 17.368C84.2983 17.872 83.4463 18.568 82.7263 19.456C82.0063 20.32 81.4903 21.304 81.1783 22.408V34H79.3783V7.72H81.1783V19.744C81.9463 18.28 83.0143 17.116 84.3823 16.252C85.7503 15.388 87.2023 14.956 88.7383 14.956C89.7943 14.956 90.6943 15.148 91.4383 15.532C92.1823 15.916 92.7943 16.468 93.2743 17.188C93.7543 17.908 94.1023 18.772 94.3183 19.78C94.5583 20.788 94.6783 21.94 94.6783 23.236V34ZM207.781 8.44L190.969 34H188.917L205.693 8.44H207.781ZM225.785 25.252L210.737 34.252V32.272L223.157 24.676L210.737 17.08V15.136L225.785 24.172V25.252Z" fill="white"/>
<path d="M119.093 12.796H110.921V34H105.989V12.796H97.8165V8.44H119.093V12.796ZM117.408 28.42C117.408 27.196 117.744 26.128 118.416 25.216C119.112 24.28 120.072 23.56 121.296 23.056C122.52 22.552 123.924 22.3 125.508 22.3C126.3 22.3 127.104 22.36 127.92 22.48C128.736 22.6 129.444 22.792 130.044 23.056V22.048C130.044 20.848 129.684 19.924 128.964 19.276C128.268 18.628 127.224 18.304 125.832 18.304C124.8 18.304 123.816 18.484 122.88 18.844C121.944 19.204 120.96 19.732 119.928 20.428L118.38 17.26C119.628 16.444 120.9 15.832 122.196 15.424C123.516 15.016 124.896 14.812 126.336 14.812C129.024 14.812 131.112 15.484 132.6 16.828C134.112 18.172 134.868 20.092 134.868 22.588V28.6C134.868 29.104 134.952 29.464 135.12 29.68C135.312 29.896 135.612 30.028 136.02 30.076V34C135.588 34.072 135.192 34.132 134.832 34.18C134.496 34.228 134.208 34.252 133.968 34.252C133.008 34.252 132.276 34.036 131.772 33.604C131.292 33.172 130.992 32.644 130.872 32.02L130.764 31.048C129.948 32.104 128.928 32.92 127.704 33.496C126.48 34.072 125.232 34.36 123.96 34.36C122.712 34.36 121.584 34.108 120.576 33.604C119.592 33.076 118.812 32.368 118.236 31.48C117.684 30.568 117.408 29.548 117.408 28.42ZM129.144 29.392C129.408 29.104 129.624 28.816 129.792 28.528C129.96 28.24 130.044 27.976 130.044 27.736V25.828C129.468 25.588 128.844 25.408 128.172 25.288C127.5 25.144 126.864 25.072 126.264 25.072C125.016 25.072 123.984 25.348 123.168 25.9C122.376 26.428 121.98 27.136 121.98 28.024C121.98 28.504 122.112 28.96 122.376 29.392C122.64 29.824 123.024 30.172 123.528 30.436C124.032 30.7 124.632 30.832 125.328 30.832C126.048 30.832 126.756 30.7 127.452 30.436C128.148 30.148 128.712 29.8 129.144 29.392ZM139.34 7.72H144.164V27.952C144.164 28.816 144.308 29.404 144.596 29.716C144.884 30.004 145.28 30.148 145.784 30.148C146.168 30.148 146.564 30.1 146.972 30.004C147.38 29.908 147.74 29.788 148.052 29.644L148.7 33.316C148.052 33.628 147.296 33.868 146.432 34.036C145.568 34.204 144.788 34.288 144.092 34.288C142.58 34.288 141.404 33.892 140.564 33.1C139.748 32.284 139.34 31.132 139.34 29.644V7.72ZM159.549 34.36C158.037 34.36 156.669 34.108 155.445 33.604C154.221 33.076 153.177 32.368 152.313 31.48C151.449 30.568 150.777 29.536 150.297 28.384C149.841 27.208 149.613 25.972 149.613 24.676C149.613 22.876 150.009 21.232 150.801 19.744C151.617 18.256 152.769 17.068 154.257 16.18C155.769 15.268 157.545 14.812 159.585 14.812C161.649 14.812 163.413 15.268 164.877 16.18C166.341 17.068 167.457 18.256 168.225 19.744C169.017 21.208 169.413 22.792 169.413 24.496C169.413 24.784 169.401 25.084 169.377 25.396C169.353 25.684 169.329 25.924 169.305 26.116H154.725C154.821 27.076 155.097 27.916 155.553 28.636C156.033 29.356 156.633 29.908 157.353 30.292C158.097 30.652 158.889 30.832 159.729 30.832C160.689 30.832 161.589 30.604 162.429 30.148C163.293 29.668 163.881 29.044 164.193 28.276L168.333 29.428C167.877 30.388 167.217 31.24 166.353 31.984C165.513 32.728 164.517 33.316 163.365 33.748C162.213 34.156 160.941 34.36 159.549 34.36ZM154.617 23.056H164.481C164.385 22.096 164.109 21.268 163.653 20.572C163.221 19.852 162.645 19.3 161.925 18.916C161.205 18.508 160.401 18.304 159.513 18.304C158.649 18.304 157.857 18.508 157.137 18.916C156.441 19.3 155.865 19.852 155.409 20.572C154.977 21.268 154.713 22.096 154.617 23.056ZM179.3 34.36C177.692 34.36 176.156 34.096 174.692 33.568C173.228 33.04 171.968 32.26 170.912 31.228L172.64 28.096C173.768 29.008 174.872 29.68 175.952 30.112C177.056 30.544 178.112 30.76 179.12 30.76C180.056 30.76 180.8 30.592 181.352 30.256C181.928 29.92 182.216 29.416 182.216 28.744C182.216 28.288 182.06 27.94 181.748 27.7C181.436 27.436 180.98 27.208 180.38 27.016C179.804 26.824 179.096 26.608 178.256 26.368C176.864 25.912 175.7 25.468 174.764 25.036C173.828 24.604 173.12 24.064 172.64 23.416C172.184 22.744 171.956 21.892 171.956 20.86C171.956 19.612 172.268 18.544 172.892 17.656C173.54 16.744 174.428 16.036 175.556 15.532C176.708 15.028 178.052 14.776 179.588 14.776C180.932 14.776 182.204 14.992 183.404 15.424C184.604 15.832 185.696 16.504 186.68 17.44L184.736 20.5C183.776 19.756 182.864 19.216 182 18.88C181.136 18.52 180.26 18.34 179.372 18.34C178.868 18.34 178.388 18.4 177.932 18.52C177.5 18.64 177.14 18.844 176.852 19.132C176.588 19.396 176.456 19.78 176.456 20.284C176.456 20.74 176.576 21.1 176.816 21.364C177.08 21.604 177.464 21.82 177.968 22.012C178.496 22.204 179.132 22.42 179.876 22.66C181.388 23.092 182.66 23.536 183.692 23.992C184.748 24.448 185.54 25.012 186.068 25.684C186.596 26.332 186.86 27.232 186.86 28.384C186.86 30.256 186.176 31.72 184.808 32.776C183.44 33.832 181.604 34.36 179.3 34.36Z" fill="#F212F7"/>
</svg>
