<svg width="12" height="12" viewBox="0 0 12 12" fill="none" xmlns="http://www.w3.org/2000/svg">
<path d="M1.98468 7.98478L5.73468 4.23478C5.7695 4.19992 5.81086 4.17226 5.85639 4.15339C5.90191 4.13451 5.95071 4.1248 5.99999 4.1248C6.04927 4.1248 6.09807 4.13451 6.14359 4.15339C6.18912 4.17226 6.23048 4.19992 6.2653 4.23478L10.0153 7.98478C10.0857 8.05515 10.1252 8.15059 10.1252 8.2501C10.1252 8.34961 10.0857 8.44504 10.0153 8.51541C9.94494 8.58577 9.8495 8.62531 9.74999 8.62531C9.65048 8.62531 9.55504 8.58577 9.48468 8.51541L5.99999 5.03025L2.5153 8.51541C2.48046 8.55025 2.4391 8.57789 2.39358 8.59674C2.34805 8.6156 2.29926 8.62531 2.24999 8.62531C2.20072 8.62531 2.15193 8.6156 2.1064 8.59674C2.06088 8.57789 2.01952 8.55025 1.98468 8.51541C1.94984 8.48057 1.9222 8.43921 1.90334 8.39368C1.88449 8.34816 1.87478 8.29937 1.87478 8.2501C1.87478 8.20082 1.88449 8.15203 1.90334 8.10651C1.9222 8.06099 1.94984 8.01963 1.98468 7.98478Z" fill="white"/>
</svg>
